<?xml version="1.0" encoding="UTF-8"?>
<!DOCTYPE svg PUBLIC "-//W3C//DTD SVG 1.0//EN" "http://www.w3.org/TR/2001/REC-SVG-20010904/DTD/svg10.dtd">
<!-- Creator: CorelDRAW 2017 -->
<svg xmlns="http://www.w3.org/2000/svg" xml:space="preserve" width="356px" height="200px" version="1.0" shape-rendering="geometricPrecision" text-rendering="geometricPrecision" image-rendering="optimizeQuality" fill-rule="evenodd" clip-rule="evenodd"
viewBox="0 0 35600 20025"
 xmlns:xlink="http://www.w3.org/1999/xlink">
 <g id="Layer_x0020_1">
  <metadata id="CorelCorpID_0Corel-Layer"/>
  <g id="_1973010434368">
   <polygon fill="#E6E7E8" points="0,0 35600,0 35600,20025 0,20025 "/>
   <path fill="#373435" fill-opacity="0.031373" d="M2102 17538c67,103 111,202 155,311 31,64 48,183 198,183 44,0 107,-14 163,-45 63,-33 111,-82 135,-159l61 -201 145 -72 10 10c-19,76 -24,148 -24,206 0,169 145,233 262,233 68,0 128,-33 128,-95 0,-81 -34,-216 -78,-338 68,-68 136,-136 214,-191l12 6c34,144 53,286 53,381 0,92 -41,195 -75,263 -70,132 -194,237 -344,237 -114,0 -240,-57 -327,-163l-5 0c-83,101 -209,194 -412,194l-63 0c-10,134 -39,229 -82,313 -122,237 -480,404 -817,404 -470,0 -705,-272 -705,-632 0,-223 72,-431 184,-577l92 37c-70,134 -116,261 -116,385 0,338 274,499 591,499 293,0 657,-188 722,-404 -24,-237 -114,-348 -250,-565 42,-72 95,-144 160,-220l13 0zm5414 -1273c99,62 196,136 290,221 -53,74 -118,142 -201,201 -94,-76 -189,-142 -286,-212 66,-74 131,-146 197,-210zm51 925c-160,0 -291,105 -291,183 0,167 320,219 702,217 -48,-196 -215,-400 -411,-400zm-359 894c208,0 390,-6 528,-41 155,-39 286,-118 286,-171 0,-15 0,-31 -5,-46 -87,9 -186,9 -274,9 -281,0 -496,-64 -581,-223 -22,-43 -36,-93 -36,-148 0,-153 65,-303 181,-406 97,-84 204,-138 313,-138 196,0 354,159 463,408 60,136 101,292 101,490 0,132 -36,243 -118,326 -153,148 -434,204 -865,204l-197 0 0 0 -51 0c-106,0 -184,-19 -244,-66l-10 0c2,24 5,49 5,72 0,97 -32,220 -97,319 -192,286 -400,410 -579,410 -182,0 -405,-70 -606,-161l36 -70c66,27 155,45 279,45 325,0 751,-313 804,-617 -12,-25 -33,-58 -65,-93 -94,-113 -155,-208 -211,-307 49,-95 92,-171 134,-239l16 -2c139,282 265,445 546,445l43 0 0 0 204 0zm-1406 299c24,-130 26,-276 26,-412l0 -202c0,-377 -48,-925 -87,-1281 68,-75 163,-161 238,-219l21 6c51,449 64,971 64,1450 0,126 -5,250 -17,340 -8,114 -73,200 -214,332l-31 -14zm-1447 -596c7,177 94,317 397,317 189,0 349,-49 526,-133 31,-15 48,-33 48,-50 0,-111 -84,-257 -228,-391 -138,-126 -322,-237 -494,-311 -58,-25 -77,-52 -77,-76 0,-52 68,-159 123,-235l20 -2c196,103 416,255 579,426 148,157 240,315 240,488 0,128 -39,250 -102,361 -216,109 -446,191 -674,191 -276,0 -465,-129 -465,-434 0,-33 0,-85 12,-151l95 0zm-500 -502l172 278c63,103 121,214 121,391l0 227c0,183 -117,379 -306,572 -147,132 -278,188 -399,188 -180,0 -386,-56 -623,-159l26 -70c76,21 163,37 270,37 341,-2 690,-251 850,-556 19,-35 27,-68 27,-91 0,-35 -20,-74 -34,-109 -87,-165 -184,-315 -291,-453 56,-88 111,-173 172,-257l15 2z"/>
   <path fill="#373435" fill-opacity="0.078431" d="M15124 20025l-14 0 0 0 -57 0 0 0 -8 0 -1 0 -36 0 0 0 -4 0 -3 0 -7 0 0 0 -17 0 -14 0 0 0 -13 0 0 0 -33 0 0 0 -11 0 -1 0 -42 0 0 0 -67 0 -16 0 -6 0 0 0 -1 0 -8 0 0 0 -176 0 -47 0 -13 0 -91 0 -25 0 -11 0 -268 0 -37 0 -42 0 -133 0 -63 0 0 0 -41 0 0 0 -147 0 -124 0 -3 0 -24 0 -113 0 -24 0 -9 0 0 0 -1 0 -131 0 -97 0 -30 0 -10 0 -14 0 0 0 -3 0 -44 0 -16 0 -512 0 -39 0 -20 0 -84 0 -1 0 0 0 -1 0 -3 0 -16 0 -150 0 -207 0 -49 0 -153 0 -24 0 -4 0 -1 0 -87 0 -1 0 -2 0 -24 0 -2 0 -361 0 -60 0 -102 0 -528 0 -90 0 -25 0 0 0 0 0 -217 0 0 0 -124 0 0 0 -4 0 -78 0 -13 0 -55 0 -10 0 -85 0 -27 0 -94 0 -26 0 -119 0 -2 0 -4 0 -1 0 -78 0 -2 0 -24 0 -34 0 0 0 -96 0 -14 0 -11 0 0 0 -81 0 -63 0 -1 0 -101 0 -413 0 -87 0 -10 0 -13 0 -3 0 -46 0 -15 0 -48 0 -121 0 -192 0 -40 0 -196 0 -33 0 -29 0 -3 0 -24 0 -179 0 0 0 -58 0 -100 0 -262 0 -53 0 0 0 -239 0 -227 0 -81 0 0 0 -1 0 0 0 -122 0 -181 0 -122 0 -23 0 -64 0 -4 0 -27 0 -6 0 -24 0 -62 0 -17 0 -75 0 -26 0 -17 0 -165 0 0 0 -83 0 -203 0 -1 0 -36 0 -141 0 -274 0 -61 0 -56 0 -9 0 -89 0 -1 0 -123 0 0 0 -173 0 -24 0 -3 0 -24 0 0 0 -155 0 -53 0 -61 0 -86 0 -81 0 -2 0 -25 0 -99 0 -72 0 -2 0 -12 0 -38 0 0 0 -64 0 -8 0 -292 0 -291 0 -2 0 -24 0 -33 0 -1065 0 -47 0 -9 0 -156 0 -206 0 -47 0 -99 0 -134 0 -31 0 -1 0 -502 0 -99 0 -190 0 -63 0 -78 0 -63 0 -13 0 -22 0 -70 0 -101 0 -13 0 0 -48 0 -62 0 -62 0 -43 0 -400 0 -71 0 -64 0 -156 0 -30 0 -57 0 -47 0 -2 0 -254 0 -128 0 -146 0 -88 0 -123 0 -472 0 -299 0 -69 0 -823 0 -90 0 -102 0 -647 0 -174 0 -269 0 -75 0 -36 0 -392 0 -59 0 -145 0 -8 0 -18 0 -6 0 -160 0 -3 0 -23 0 -263 0 -28 0 -3 0 -32 0 -111 0 -74 0 -274 0 -36 0 -209 0 -215 0 -57 0 -17 0 -16 0 -258 0 -60 0 -32 0 -229 0 -79 0 -33 0 -8 0 -10 0 -23 0 -195 0 -75 0 -19 0 -80 0 -58 0 -441 0 -669 10802 -8402 0 84 0 84 0 84 0 84 0 84 0 84 0 83 0 82 859 -669 0 55 0 55 0 55 0 55 0 55 0 55 0 56 0 55 -859 669 0 58 1500 -1168 0 52 1 51 0 51 0 51 0 52 0 51 0 51 0 51 0 4 0 4 0 3 0 4 0 4 0 5 0 4 0 5 50 0 49 0 49 0 49 0 50 0 49 0 50 0 50 0 0 5 0 5 0 4 0 4 0 4 0 4 0 3 0 4 0 104 0 104 0 104 0 5 448 -349 21 0 571 -444 0 3 -1 2 0 2 0 2 0 2 0 2 0 3 0 2 0 81 0 82 0 81 0 81 0 82 0 81 0 81 0 82 0 81 0 59 1039 -809 -26 44 -27 44 -26 44 -27 43 -26 44 -27 44 -26 43 -26 44 -9 15 -10 15 -9 15 -9 15 -9 15 -9 15 -10 15 -9 16 -299 232 26 40 38 59 38 59 23 35 1150 -896 0 113 0 112 0 112 0 112 0 113 0 112 1 112 0 112 0 56 0 55 -1 56 0 55 0 56 0 55 0 56 0 55 135 0 135 0 135 0 134 0 135 0 135 0 135 0 135 0 -2757 2145 1532 0 4505 -3504 0 84 0 85 0 84 0 84 0 85 0 84 0 84 0 84 0 84 0 70 476 -371 78 0 78 0 77 0 78 0 79 0 78 0 26 0 588 -457 0 44 -1 45 -1 45 0 44 -1 45 0 44 0 45 0 45 1 6 2 6 3 6 4 7 4 6 5 6 4 6 5 6 40 57 40 57 40 56 40 57 40 57 40 57 40 56 4 6 429 -333 45 0 44 0 43 0 39 0 612 -476 0 41 0 42 0 42 0 42 0 41 0 42 0 42 1 42 0 7 1 8 2 9 2 8 3 7 4 8 3 7 5 7 44 63 44 64 45 63 45 64 45 64 45 64 20 27 424 -330 48 0 47 0 46 0 45 0 45 0 44 0 43 0 44 0 -1066 829 0 43 134 0 133 0 133 0 133 0 133 0 133 0 134 0 133 0 -2737 2129 650 0 2437 0 1 893 -1295 1007 1116 0 -250 2983 -2425 1886 421 117 2934 -816 -2467 1919 31 0 79 0 56 0 21 0 23 0 60 1 86 0 98 0 98 0 85 0 61 0 23 0 120 6 104 16 88 27 73 37 61 47 47 57 36 65 25 75 1 2 1 7 3 9 2 11 3 11 2 9 1 7 1 2 1 5 3 14 5 18 5 21 5 22 4 18 3 14 1 5 2 4 3 13 4 18 5 21 5 21 4 18 4 13 1 5 0 0 1 12 -1 11 0 0 -3 10 0 0 -3 5 1327 -1032 -10 9 -8 10 -13 18 -35 52 -55 80 -71 104 -84 124 -94 137 -100 147 -104 152 -103 152 -101 147 -94 138 -84 123 -71 104 -55 80 -35 52 -13 18 -7 9 -7 6 -685 533 8 30 36 127 14 48 3 13 2 14 2 16 0 16 0 15 -1 16 -2 14 -2 13 -6 23 -16 62 -22 87 -26 99 -26 100 -22 87 -16 61 -6 24 -2 12 1 11 3 10 5 8 7 7 9 6 11 3 12 1 30 0 80 0 113 0 130 0 129 0 113 0 80 0 31 0 12 -1 12 -3 12 -6 11 -7 -4479 3484 -25 0 -707 0 -120 0 -558 0 -152 0 -322 0 -5 0 -444 0 -8 0 0 0 0 0 -16 0 -4 0 -57 0 0 0 -7 0 0 0 -446 0 -2 0 0 0 -5 0 -13 0 0 0 -9 0 -1 0 -16 0 0 0 -3 0 -1 0 -56 0 -79 0 -38 0 -7 0 -63 0 -106 0 -54 0 -35 0 -14 0 -3 0 -1 0 0 0 -63 0 0 0 -40 0 -23 0 0 0 0 0 0 0 -1 0 -3 0 0 0 -1 0 0 0 0 0 -257 0 -50 0 0 0 -166 0 0 0 -141 0 0 0 -124 0 0 0 -17 0 0 0 0 0 -2 0 0 0 -73 0zm10627 -6616l0 0zm-2076 795l0 0 0 0 0 0 0 0zm56 242l0 0 0 0z"/>
   <polygon fill="#FEFEFE" fill-rule="nonzero" points="18295,4498 18979,11899 21919,12712 24853,11896 25532,4498 "/>
   <polygon fill="#FEFEFE" fill-rule="nonzero" points="10068,4509 10749,11884 13679,12694 16604,11881 17281,4509 "/>
   <path id="path286" fill="#606062" fill-rule="nonzero" d="M14296 14868c0,0 1,0 1,0 0,0 -131,463 -131,463 0,0 130,-463 130,-463z"/>
   <path id="path288" fill="#606062" fill-rule="nonzero" d="M14968 15873c0,0 -144,-1 -144,-1 0,0 144,1 144,1z"/>
   <path id="path290" fill="#606062" fill-rule="nonzero" d="M14931 16564c0,0 0,0 0,0 0,0 -862,3 -862,3 0,0 862,-3 862,-3l0 0z"/>
   <path id="path292" fill="#606062" fill-rule="nonzero" d="M15112 15874c0,0 -144,-1 -144,-1 0,0 144,1 144,1z"/>
   <path id="path294" fill="#606062" fill-rule="nonzero" d="M15007 16505c0,0 150,-573 150,-573 0,0 -150,573 -150,573 0,0 0,0 0,0z"/>
   <path id="path336" fill="#606062" fill-rule="nonzero" d="M10613 15540c0,0 93,-412 93,-412 0,0 -107,471 -107,471 0,0 -102,480 -102,480 0,0 90,-421 90,-421 7,-33 18,-86 26,-118z"/>
   <path id="path340" fill="#606062" fill-rule="nonzero" d="M11582 14716c0,0 0,0 0,0 0,0 -192,892 -192,892 0,0 192,-892 192,-892z"/>
   <g>
    <path id="path342" fill="#606062" fill-rule="nonzero" d="M9673 17670c0,0 331,4 542,4 -160,0 -424,-3 -542,-4 0,0 0,0 1,0l-1 0zm0 0l0 0 0 0z"/>
   </g>
   <path id="path344" fill="#606062" fill-rule="nonzero" d="M10799 14716c0,0 -93,412 -93,412 0,0 93,-412 93,-412z"/>
   <g id="_1973010433472">
    <g>
     <g>
      <g>
       <path fill="#727376" fill-rule="nonzero" d="M24001 3281c0,138 0,277 0,416 -355,0 -711,0 -1066,0 0,-144 0,-289 0,-439 120,0 233,0 352,0 -123,-175 -243,-343 -360,-512 -12,-17 -20,-41 -20,-61 -2,-112 -1,-223 -1,-334 364,0 728,0 1095,0 0,158 0,316 0,474 -116,0 -232,0 -362,0 127,160 244,308 362,456z"/>
       <path fill="#727376" fill-rule="nonzero" d="M22470 3697c-352,0 -703,0 -1055,0 0,-144 0,-288 0,-439 116,0 227,0 347,0 -14,-21 -23,-34 -32,-47 -107,-151 -214,-302 -320,-454 -11,-15 -28,-33 -28,-49 -1,-119 2,-238 3,-357 362,0 724,0 1085,0 0,157 0,314 0,476 -116,0 -227,0 -347,0 14,20 21,33 31,45 99,127 199,254 297,382 11,14 20,34 20,51 1,131 0,261 -1,392z"/>
       <path fill="#727376" fill-rule="nonzero" d="M20930 3697c-367,0 -735,0 -1103,0 0,-448 0,-895 0,-1346 367,0 735,0 1103,0 0,150 0,301 0,457 -213,0 -420,0 -627,0 0,154 0,301 0,454 210,0 417,0 627,0 0,149 0,292 0,435z"/>
      </g>
      <path fill="#2156A6" fill-rule="nonzero" d="M18295 4498l684 7401 2940 813 2934 -816 679 -7398 -7237 0zm4725 5506l122 -1271 -1228 0 -2108 0 -124 -864 2224 -1063 -2224 -9 -181 -971 2413 0 2437 0 1 893 -2199 1007 2020 0 -250 2983 -2009 667 0 0 -1951 -716 -116 -1398 945 0 81 699 1041 302 0 0 1106 -259z"/>
     </g>
     <g>
      <path fill="#FFA600" fill-rule="nonzero" d="M10068 4509l681 7375 2930 810 2925 -813 677 -7372 -7213 0zm2221 2321l83 951 40 38 1262 0 2238 0 -263 2960 -26 31 -1947 538 -2 0 -2014 -562 -132 -1509 954 -3 27 28 64 728 22 26 1078 278 1 0 1041 -279 21 -26 109 -1235 -1171 0 -2169 0 -24 -21 -258 -2875 0 -43 2451 0 2412 0 -87 975 -2325 0 -1385 0z"/>
      <g>
       <path fill="#727376" fill-rule="nonzero" d="M13739 2368c155,0 311,0 467,0 3,7 7,14 10,20 85,139 170,278 255,417 6,10 13,21 21,34 25,-42 50,-81 74,-121 70,-116 141,-233 211,-350 156,0 312,0 468,0 0,7 0,14 0,20 0,433 0,865 0,1298 0,8 0,16 0,24 -148,0 -295,0 -443,0 0,-11 -2,-23 -2,-34 0,-199 0,-398 0,-596 0,-9 0,-18 0,-26 -2,0 -3,-1 -5,-1 -102,156 -203,313 -307,473 -105,-161 -206,-317 -307,-474 -2,1 -3,1 -5,2 0,219 0,437 0,656 -146,0 -292,0 -437,0 -1,-7 -1,-15 -1,-22 0,-434 0,-868 0,-1302 0,-6 0,-12 1,-18z"/>
       <path fill="#727376" fill-rule="nonzero" d="M11249 3710c-149,0 -298,0 -447,0 0,-447 0,-894 0,-1342 151,0 301,0 452,0 -1,6 -3,12 -3,17 0,136 0,272 0,407 0,6 1,11 2,17 137,0 272,0 408,0 0,-148 0,-294 0,-441 149,0 298,0 447,0 0,448 0,895 0,1342 -149,0 -298,0 -447,0 0,-149 0,-299 0,-450 -11,0 -20,0 -29,0 -116,0 -232,-1 -348,0 -33,0 -33,0 -33,31 0,129 0,258 0,387 0,11 -1,22 -2,32z"/>
       <path fill="#727376" fill-rule="nonzero" d="M12302 2368c413,0 825,0 1238,0 0,148 0,294 0,444 -132,0 -261,0 -393,0 0,302 0,600 0,898 -149,0 -298,0 -447,0 0,-11 -1,-23 -1,-34 0,-278 0,-555 0,-832 0,-10 0,-19 0,-33 -134,0 -264,0 -396,0 0,-13 0,-23 0,-33 0,-136 0,-273 -1,-410z"/>
       <path fill="#727376" fill-rule="nonzero" d="M15468 2368c149,0 298,0 447,0 1,11 2,22 2,33 0,277 0,554 0,831 0,11 0,21 0,34 211,0 419,0 630,0 0,150 0,297 0,444 -360,0 -719,0 -1079,0 0,-148 1,-296 1,-444 -1,-299 -1,-598 -1,-898z"/>
      </g>
     </g>
    </g>
    <g>
     <path id="path286_0" fill="#606062" fill-rule="nonzero" d="M14296 14868c0,0 1,0 1,0 0,0 -131,463 -131,463 0,0 130,-463 130,-463z"/>
     <path id="path288_1" fill="#606062" fill-rule="nonzero" d="M14968 15873c0,0 -144,-1 -144,-1 0,0 144,1 144,1z"/>
     <path id="path290_2" fill="#606062" fill-rule="nonzero" d="M14931 16564c0,0 0,0 0,0 0,0 -862,3 -862,3 0,0 862,-3 862,-3l0 0z"/>
     <path id="path292_3" fill="#606062" fill-rule="nonzero" d="M15112 15874c0,0 -144,-1 -144,-1 0,0 144,1 144,1z"/>
     <path id="path294_4" fill="#606062" fill-rule="nonzero" d="M15007 16505c0,0 150,-573 150,-573 0,0 -150,573 -150,573 0,0 0,0 0,0z"/>
     <path id="path296" fill="#606062" fill-rule="nonzero" d="M18182 13867c0,0 -280,1316 -280,1316 0,0 280,-1316 280,-1316z"/>
     <path id="path298" fill="#606062" fill-rule="nonzero" d="M17463 13867c0,0 -213,983 -213,983 0,0 213,-983 213,-983 0,0 0,0 0,0z"/>
     <g>
      <path id="path300" fill="#606062" fill-rule="nonzero" d="M18134 13808c0,0 -598,0 -598,0 -33,0 -66,27 -73,59 0,0 -213,983 -213,983 0,0 -212,983 -212,983 -7,32 -40,59 -73,59 0,0 -363,0 -363,0 0,0 -61,0 -61,0 -419,0 -371,-290 -285,-687 1,-4 2,-8 3,-12 0,0 9,-50 9,-50 1,-4 2,-7 2,-10 0,0 19,-102 19,-102 0,0 21,-109 21,-109 6,-33 15,-81 22,-111 0,0 96,-472 96,-472 0,0 97,-472 97,-472 6,-32 -15,-59 -49,-59 0,0 -614,0 -614,0 -33,0 -66,27 -73,59 0,0 -132,627 -132,627 0,0 -132,626 -132,626 0,0 0,1 0,1 0,0 -12,58 -12,58 -152,695 -112,1357 715,1378 13,0 24,0 24,0 0,0 1298,0 1298,0 33,0 66,-26 73,-59 0,0 279,-1315 279,-1315 0,0 280,-1316 280,-1316 7,-32 -14,-59 -48,-59l0 0zm0 0l0 0 0 0z"/>
     </g>
     <g>
      <path id="path302" fill="#606062" fill-rule="nonzero" d="M20521 15898c33,0 55,27 48,60 0,0 -58,284 -58,284l10 -344zm0 0l0 0 0 0z"/>
     </g>
     <g>
      <path id="path304" fill="#606062" fill-rule="nonzero" d="M20453 16526c0,0 58,-284 58,-284 0,0 -58,284 -58,284 0,0 0,0 0,0l0 0zm0 0l0 0 0 0z"/>
     </g>
     <g>
      <path id="path306" fill="#606062" fill-rule="nonzero" d="M20381 16585c0,0 0,0 0,0 -176,2 -705,6 -1103,6 484,0 1103,-6 1103,-6l0 0zm0 0l0 0 0 0z"/>
     </g>
     <g>
      <path id="path308" fill="#606062" fill-rule="nonzero" d="M18921 15533c-1,-31 35,-85 68,-85 0,0 -75,-1 -75,-1 -34,338 7,86 7,86l0 0zm0 0l0 0 0 0z"/>
     </g>
     <path id="path310" fill="#606062" fill-rule="nonzero" d="M19332 16591c-4,0 -8,0 -11,0 3,0 7,0 11,0z"/>
     <g>
      <path id="path312" fill="#606062" fill-rule="nonzero" d="M20521 15898c33,0 55,27 48,60 0,0 -58,284 -58,284 0,0 -9,46 -9,46l19 -390zm0 0l0 0 0 0z"/>
     </g>
     <path id="path314" fill="#606062" fill-rule="nonzero" d="M19615 16590c0,0 -2,0 -2,0 0,0 2,0 2,0z"/>
     <path id="path316" fill="#606062" fill-rule="nonzero" d="M19469 16591c0,0 -9,0 -9,0 0,0 9,0 9,0z"/>
     <path id="path318" fill="#606062" fill-rule="nonzero" d="M19424 16591c-5,0 -10,0 -14,0 5,0 9,0 14,0z"/>
     <path id="path320" fill="#606062" fill-rule="nonzero" d="M19378 16591c0,0 -12,0 -12,0 0,0 12,0 12,0z"/>
     <path id="path322" fill="#606062" fill-rule="nonzero" d="M19460 16591c-12,0 -24,0 -36,0 12,0 24,0 36,0z"/>
     <path id="path324" fill="#606062" fill-rule="nonzero" d="M19613 16590c-48,0 -97,0 -144,1 47,-1 96,-1 144,-1z"/>
     <g>
      <path id="path326" fill="#606062" fill-rule="nonzero" d="M20381 16585c0,0 0,0 0,0 -129,1 -448,4 -766,5 318,-1 637,-4 766,-5l0 0zm0 0l0 0 0 0z"/>
     </g>
     <g>
      <path id="path328" fill="#606062" fill-rule="nonzero" d="M20453 16526c0,0 49,-238 49,-238 0,0 -49,238 -49,238 0,0 0,0 0,0l0 0zm0 0l0 0 0 0z"/>
     </g>
     <path id="path330" fill="#606062" fill-rule="nonzero" d="M19410 16591c0,0 -32,0 -32,0 0,0 32,0 32,0z"/>
     <path id="path332" fill="#606062" fill-rule="nonzero" d="M19321 16591c0,0 -43,0 -43,0 0,0 43,0 43,0z"/>
     <path id="path334" fill="#606062" fill-rule="nonzero" d="M19366 16591c0,0 -34,0 -34,0 0,0 34,0 34,0z"/>
     <path id="path336_5" fill="#606062" fill-rule="nonzero" d="M10613 15540c0,0 93,-412 93,-412 0,0 -107,471 -107,471 0,0 -102,480 -102,480 0,0 90,-421 90,-421 7,-33 18,-86 26,-118z"/>
     <g>
      <path id="path338" fill="#606062" fill-rule="nonzero" d="M11725 13801c0,0 -657,0 -657,0 -33,0 -66,26 -74,59 0,0 -62,275 -62,275 0,0 -62,275 -62,275 -7,32 14,59 47,59 0,0 662,0 662,0 33,0 66,-27 73,-59 0,0 61,-275 61,-275 0,0 60,-275 60,-275 0,0 0,0 0,0 7,-33 -14,-59 -48,-59l0 0zm0 0l0 0 0 0z"/>
     </g>
     <path id="path340_6" fill="#606062" fill-rule="nonzero" d="M11582 14716c0,0 0,0 0,0 0,0 -192,892 -192,892 0,0 192,-892 192,-892z"/>
     <g>
      <path id="path342_7" fill="#606062" fill-rule="nonzero" d="M9673 17670c0,0 331,4 542,4 -160,0 -424,-3 -542,-4 0,0 0,0 1,0l-1 0zm0 0l0 0 0 0z"/>
     </g>
     <path id="path344_8" fill="#606062" fill-rule="nonzero" d="M10799 14716c0,0 -93,412 -93,412 0,0 93,-412 93,-412z"/>
     <g>
      <path id="path346" fill="#606062" fill-rule="nonzero" d="M11535 14657c0,0 -663,0 -663,0 -33,0 -66,26 -73,59 0,0 -93,412 -93,412 0,0 -93,412 -93,412 -8,32 -19,85 -26,118 0,0 -90,421 -90,421 0,0 -89,420 -89,420 -7,33 -21,85 -32,116 0,0 -124,369 -332,364 -8,0 -17,0 -26,0 -100,-2 -179,-3 -179,-3 0,0 0,0 0,0 -34,-1 -67,25 -75,57 0,0 0,0 0,0 0,0 -68,289 -68,289 0,0 -69,289 -69,289 -8,32 13,58 46,59 118,1 382,4 542,4 520,0 794,-287 969,-1116 0,0 206,-950 206,-950 0,0 193,-892 193,-892 7,-33 -15,-59 -48,-59l0 0zm0 0l0 0 0 0z"/>
     </g>
     <g>
      <path id="path348" fill="#606062" fill-rule="nonzero" d="M20943 16557c-33,0 -54,-26 -47,-59 0,0 498,-2334 498,-2334l-451 2393zm0 0l0 0 0 0z"/>
     </g>
     <path id="path350" fill="#606062" fill-rule="nonzero" d="M21636 16498c0,0 201,-996 201,-996 0,0 -201,996 -201,996z"/>
     <path id="path352" fill="#606062" fill-rule="nonzero" d="M20903 16528c-4,-17 -2,-57 5,-89 0,0 237,-1108 237,-1108 0,0 -249,1167 -249,1167 -7,33 14,59 47,59 0,0 61,0 61,0 -33,0 -97,-13 -101,-29z"/>
     <path id="path354" fill="#606062" fill-rule="nonzero" d="M21596 16544c-18,7 -60,13 -93,13 0,0 60,0 60,0 34,0 66,-27 73,-59 0,0 12,-59 12,-59 -7,32 -34,97 -52,105z"/>
     <path id="path356" fill="#606062" fill-rule="nonzero" d="M21737 16000c0,0 88,-440 88,-440 0,1 0,1 0,1 0,0 -88,439 -88,439l0 0z"/>
     <g>
      <path id="path358" fill="#606062" fill-rule="nonzero" d="M23702 14321c0,0 28,113 28,113 7,32 -14,59 -47,59l19 -172zm0 0l0 0 0 0z"/>
     </g>
     <path id="path360" fill="#606062" fill-rule="nonzero" d="M21648 16439c0,0 89,-439 89,-439 0,0 -89,439 -89,439z"/>
     <path id="path362" fill="#606062" fill-rule="nonzero" d="M23675 14204c0,0 0,0 0,0 0,0 27,117 27,117 0,0 -27,-117 -27,-117z"/>
     <path id="path364" fill="#606062" fill-rule="nonzero" d="M21825 15560c7,-32 18,-85 25,-117 0,0 95,-445 95,-445 0,0 -108,504 -108,504 0,0 -12,58 -12,58l0 0z"/>
     <path id="path366" fill="#606062" fill-rule="nonzero" d="M21402 14126c-7,31 -15,71 -21,97 0,0 -236,1108 -236,1108 0,0 249,-1167 249,-1167 0,0 8,-38 8,-38z"/>
     <g>
      <path id="path368" fill="#606062" fill-rule="nonzero" d="M23730 14434c0,0 -28,-113 -28,-113 0,0 -27,-117 -27,-117 0,0 -14,-58 -14,-58 -53,-209 -211,-330 -554,-330 0,0 -534,-1 -534,-1 0,0 -492,0 -492,0 0,0 -42,0 -42,0 0,0 -511,0 -511,0 -33,0 -66,26 -73,59 0,0 0,0 0,0 0,0 -24,116 -24,116 0,0 -29,136 -29,136 0,0 -8,38 -8,38 0,0 -249,1167 -249,1167 0,0 -237,1108 -237,1108 -7,32 -9,72 -5,89 4,16 68,29 101,29 0,0 499,0 499,0 33,0 75,-6 93,-13 19,-7 45,-73 52,-105 0,0 89,-439 89,-439 0,0 88,-439 88,-439 0,0 0,0 0,-1 0,0 12,-58 12,-58 0,0 108,-504 108,-504 0,0 95,-445 95,-445 7,-33 40,-59 73,-59 0,0 1570,-1 1570,-1 33,0 54,-27 47,-59l0 0zm0 0l0 0 0 0z"/>
     </g>
     <path id="path370" fill="#606062" fill-rule="nonzero" d="M25751 13409c-33,0 -88,0 -121,0 0,0 -502,0 -502,0 -34,0 -76,23 -95,50 0,0 -1112,1628 -1112,1628 -18,28 -40,24 -47,-9 0,0 -82,-358 -82,-358 -7,-33 -40,-59 -74,-59 0,0 -714,0 -714,0 -33,0 -53,26 -44,58 0,0 320,1121 320,1121 9,32 10,85 2,117 0,0 -140,543 -140,543 -8,32 12,58 46,58 0,0 706,0 706,0 33,0 67,-26 75,-58 0,0 140,-543 140,-543 8,-32 31,-80 51,-107 0,0 1804,-2395 1804,-2395 20,-26 10,-48 -24,-48 0,0 -189,2 -189,2l0 0z"/>
     <g>
      <path id="path372" fill="#606062" fill-rule="nonzero" d="M20075 14813c0,0 0,0 0,0 -4,36 -38,62 -71,62 0,0 -906,0 -906,0 -31,0 -47,-21 -42,-47 0,-1 0,-2 0,-3 0,0 0,1 0,1 0,-1 0,-2 0,-3 0,0 2,-7 4,-16 87,-230 263,-381 594,-381 373,0 446,183 421,387l0 0zm-266 -1045c-1163,0 -1438,706 -1593,1418 -155,726 -141,1405 1062,1405 0,0 43,0 43,0 4,0 7,0 11,0 0,0 34,0 34,0 0,0 12,0 12,0 0,0 32,0 32,0 5,0 9,0 14,0 12,0 24,0 36,0 0,0 9,0 9,0 47,-1 96,-1 144,-1 0,0 3,0 3,0 317,-1 636,-4 765,-5 33,0 66,-27 72,-59 0,0 49,-238 49,-238 0,0 9,-46 9,-46 0,0 59,-284 59,-284 6,-33 -16,-60 -49,-60 0,0 -1082,0 -1082,0 -430,0 -558,-114 -510,-450 0,0 1729,0 1729,0 0,0 0,0 0,0 0,0 1,0 1,0 27,-1 53,-19 63,-45 2,-5 3,-10 4,-15 0,0 0,0 0,0 257,-968 183,-1620 -917,-1620l0 0zm0 0l0 0 0 0z"/>
     </g>
     <g>
      <path id="path374" fill="#606062" fill-rule="nonzero" d="M14313 14810c0,0 -16,58 -16,58 0,0 -1,0 -1,0 0,0 -130,463 -130,463 0,0 -131,462 -131,462 -9,32 -43,58 -76,58 0,0 -692,0 -692,0 -524,0 -651,-410 -524,-1015 128,-618 378,-1003 894,-1041 705,-54 846,442 676,1015l0 0zm474 1006c0,0 326,-791 400,-1248 101,-612 -206,-1499 -1389,-1499 -1176,0 -1687,847 -1882,1767 -194,928 61,1741 1231,1735 0,0 922,-4 922,-4 0,0 863,-3 863,-3 33,0 67,-27 75,-59 0,0 150,-573 150,-573 9,-32 -12,-58 -45,-58 0,0 -144,-1 -144,-1 0,0 -144,-1 -144,-1 -28,0 -44,-19 -41,-43 1,-4 2,-9 4,-13l0 0zm0 0l0 0 0 0z"/>
     </g>
     <path id="path376" fill="#606062" fill-rule="nonzero" d="M20610 15286c0,22 -18,40 -40,40 -22,0 -40,-18 -40,-40 0,-22 18,-39 40,-39 22,0 40,17 40,39z"/>
    </g>
   </g>
  </g>
 </g>
</svg>
