<?xml version="1.0" encoding="UTF-8"?>
<!DOCTYPE svg PUBLIC "-//W3C//DTD SVG 1.0//EN" "http://www.w3.org/TR/2001/REC-SVG-20010904/DTD/svg10.dtd">
<!-- Creator: CorelDRAW 2017 -->
<svg xmlns="http://www.w3.org/2000/svg" xml:space="preserve" width="356px" height="200px" version="1.0" shape-rendering="geometricPrecision" text-rendering="geometricPrecision" image-rendering="optimizeQuality" fill-rule="evenodd" clip-rule="evenodd"
viewBox="0 0 35600 20025"
 xmlns:xlink="http://www.w3.org/1999/xlink">
 <g id="Layer_x0020_1">
  <metadata id="CorelCorpID_0Corel-Layer"/>
  <g id="_2006914621248">
   <path fill="#A7DCEB" d="M0 0l35600 0 0 20025 -35600 0 0 -20025z"/>
   <path fill="#82C8DB" d="M6977 20025l-27 0 -257 0 -249 0 -195 0 -91 0 -281 0 -266 0 -604 0 -8 0 -104 0 -901 0 -285 0 -1771 0 -496 0 -32 0 -1213 0 -197 0 0 -1592 0 -505 12254 -14956 89 -92 110 -77 130 -58 148 -38 164 -13 2715 0 320 10 310 30 298 50 286 72 271 94 255 118 237 142 219 166 199 193 177 219 153 247 129 275 103 304 76 335 46 365 16 397 0 65 -17 397 -48 366 -78 336 -107 306 -134 277 -160 249 -4015 4901 53 41 4829 -5894 133 -149 155 -138 177 -125 202 -110 226 -94 252 -76 278 -56 306 -35 335 -12 213 4 210 14 206 22 201 30 193 38 184 45 173 53 162 59 149 66 134 72 117 78 99 83 80 88 59 93 37 98 12 101 -12 116 -36 144 -60 158 -82 159 -104 147 -836 1020 74 28 255 121 239 147 215 179 185 214 148 256 103 300 -65 176 -70 172 -76 171 -80 167 -86 164 -90 162 -96 158 -100 155 -104 151 -110 149 -113 144 -34 41 1 -1 -3646 4450 23 50 32 52 24 30 378 -462 10 -12 12 -11 13 -10 24 -13 27 -12 31 -10 34 -7 38 -6 41 -5 45 -2 49 -1 38 1 37 2 34 5 32 7 29 8 27 10 25 12 23 14 20 16 19 18 18 19 15 21 14 22 8 16 1001 -1223 0 1959 612 -747 19 -22 21 -20 22 -18 24 -17 26 -14 26 -13 27 -10 28 -9 29 -7 30 -4 30 -3 32 -1 27 1 26 2 25 4 24 5 22 7 22 8 20 10 19 11 18 12 16 14 15 14 14 16 12 16 11 18 9 19 8 19 7 24 6 31 5 37 4 44 3 51 2 59 2 64 0 72 0 760 1132 -1382 -40 51 -36 54 -32 57 -29 59 -26 60 -21 61 -17 61 -14 61 -10 62 -6 62 -1 63 1 81 6 78 10 75 14 71 9 36 614 -750 35 -36 37 -31 39 -26 40 -21 43 -17 44 -12 47 -7 49 -2 48 2 46 7 45 12 42 17 41 21 38 26 37 31 34 36 31 39 27 44 24 48 18 52 15 57 11 60 6 64 2 68 -2 70 -6 66 -5 25 916 -1118 0 850 522 -637 -26 33 -24 35 -472 576 0 402 620 -757 32 -34 33 -29 36 -25 37 -20 40 -16 41 -11 43 -7 46 -2 43 2 42 7 40 12 38 15 37 21 34 25 33 30 31 34 28 39 25 44 21 49 17 54 13 58 9 64 6 68 2 73 -2 78 -6 73 -9 66 -13 61 -16 56 -20 49 -24 44 -27 38 -410 500 23 9 35 11 35 9 37 7 37 5 38 3 39 1 82 -4 79 -13 76 -21 72 -29 70 -37 66 -46 63 -54 61 -63 -2393 2921 -353 0 -278 0 -228 0 -279 0 -853 0 -316 0 -13 0 -6 0 -589 0 -108 0 -1182 0 -90 0 -415 0 -205 0 -533 0 -505 0 -560 0 -197 0 -567 0 -363 0 -404 0 -73 0 -502 0 -228 0 -18 0 -168 0 -354 0 -86 0 -20 0 -1094 0 -42 0 -224 0 -339 0 -281 0 -259 0 -112 0 -4 0 -182 0 -161 0 -156 0 -349 0 -233 0 -26 0 -71 0 -232 0 -79 0 -109 0 -227 0 -502 0 -70 0 -11 0 -79 0 -415 0 -205 0 -78 0 -455 0 -505 0 -453 0 -86 0 -21 0 -592 0 -136 0 -290 0 -53 0z"/>
   <g>
    <g>
     <path fill="#312C38" fill-rule="nonzero" d="M17800 1976c3283,0 5945,2661 5945,5944 0,3284 -2662,5945 -5945,5945 -3283,0 -5945,-2661 -5945,-5945 0,-3283 2662,-5944 5945,-5944z"/>
     <path fill="#00B4E7" fill-rule="nonzero" d="M16659 5934c0,891 -446,1311 -1181,1311l-1298 0 0 -2767 1298 0c735,0 1181,420 1181,1311l0 145zm-1049 -3240l-2715 0c-459,0 -761,289 -761,617l0 6415c303,952 840,1799 1542,2476 290,-95 504,-279 504,-551l0 -2832 1298 0c1810,0 3227,-840 3227,-3043l0 -65c0,-2204 -1364,-3017 -3095,-3017z"/>
     <path fill="#00B4E7" fill-rule="nonzero" d="M20371 7888c0,-197 223,-420 747,-420 708,0 1115,393 1469,393 472,0 734,-695 734,-957 0,-551 -1088,-944 -2229,-944 -1862,0 -2465,1049 -2465,2019 0,2204 3068,1587 3068,2492 0,184 -118,433 -813,433 -1049,0 -1351,-590 -1770,-590 -407,0 -669,577 -669,891 0,643 1115,1207 2492,1207 312,0 597,-29 854,-84 726,-657 1289,-1492 1621,-2435 -418,-1731 -3039,-1330 -3039,-2005z"/>
    </g>
    <path fill="#312C38" fill-rule="nonzero" d="M8372 17323l0 -2642 856 0c324,0 535,13 633,40 151,40 278,126 380,259 102,132 153,304 153,514 0,163 -29,298 -88,409 -59,111 -133,197 -224,261 -90,62 -182,104 -276,125 -127,25 -311,38 -552,38l-347 0 0 996 -535 0zm535 -2195l0 752 291 0c210,0 349,-14 420,-41 71,-28 126,-71 166,-131 40,-59 60,-127 60,-206 0,-96 -28,-176 -84,-238 -56,-63 -127,-102 -214,-118 -63,-12 -190,-18 -382,-18l-257 0zm2420 -447l0 979c164,-195 361,-292 589,-292 118,0 223,21 317,64 95,44 165,99 213,166 48,67 81,142 98,223 18,82 27,209 27,380l0 1122 -506 0 0 -1010c0,-200 -10,-328 -29,-382 -20,-54 -54,-97 -103,-128 -49,-32 -111,-48 -185,-48 -85,0 -161,20 -228,61 -67,41 -115,102 -146,185 -31,82 -47,203 -47,364l0 958 -505 0 0 -2642 505 0zm1638 1661c0,-168 41,-331 124,-489 83,-158 200,-278 352,-361 152,-83 321,-124 509,-124 289,0 526,94 711,282 185,189 277,426 277,714 0,290 -93,530 -280,721 -186,190 -421,286 -705,286 -175,0 -342,-40 -502,-120 -158,-79 -279,-195 -362,-349 -83,-153 -124,-340 -124,-560zm520 27c0,190 45,336 134,437 91,101 201,152 334,152 131,0 242,-51 331,-152 89,-101 134,-248 134,-441 0,-187 -45,-332 -134,-432 -89,-102 -200,-152 -331,-152 -133,0 -243,50 -334,152 -89,100 -134,246 -134,436zm2725 -961l0 402 -347 0 0 775c0,158 3,250 10,275 7,26 22,48 46,65 23,17 51,25 85,25 48,0 115,-16 204,-48l43 393c-118,50 -251,76 -399,76 -91,0 -173,-16 -246,-46 -73,-31 -127,-71 -161,-120 -34,-49 -57,-115 -71,-198 -10,-59 -16,-179 -16,-359l0 -838 -232 0 0 -402 232 0 0 -380 505 -299 0 679 347 0zm236 934c0,-168 41,-331 124,-489 83,-158 201,-278 353,-361 152,-83 321,-124 508,-124 290,0 527,94 712,282 185,189 277,426 277,714 0,290 -94,530 -280,721 -187,190 -422,286 -705,286 -175,0 -343,-40 -502,-120 -158,-79 -280,-195 -363,-349 -83,-153 -124,-340 -124,-560zm520 27c0,190 45,336 135,437 90,101 201,152 333,152 132,0 243,-51 332,-152 89,-101 134,-248 134,-441 0,-187 -45,-332 -134,-432 -89,-102 -200,-152 -332,-152 -132,0 -243,50 -333,152 -90,100 -135,246 -135,436zm1671 415l509 -77c21,97 65,172 132,222 65,51 158,76 277,76 131,0 229,-23 295,-71 45,-34 67,-80 67,-136 0,-38 -12,-70 -36,-96 -26,-24 -82,-46 -169,-67 -409,-90 -668,-172 -778,-247 -151,-104 -227,-248 -227,-431 0,-167 66,-307 197,-420 131,-113 334,-169 608,-169 262,0 457,43 584,128 128,86 216,213 264,381l-476 88c-21,-75 -60,-133 -117,-173 -57,-40 -139,-59 -245,-59 -135,0 -230,18 -289,56 -38,26 -58,61 -58,102 0,37 17,67 51,93 46,33 204,81 475,142 270,62 459,137 566,226 106,90 159,216 159,377 0,175 -73,326 -220,452 -146,126 -363,190 -651,190 -261,0 -468,-53 -620,-158 -152,-106 -251,-248 -298,-429zm2730 -2103l0 979c164,-195 361,-292 589,-292 118,0 223,21 317,64 95,44 165,99 213,166 48,67 81,142 98,223 18,82 27,209 27,380l0 1122 -506 0 0 -1010c0,-200 -10,-328 -29,-382 -20,-54 -54,-97 -103,-128 -49,-32 -111,-48 -185,-48 -85,0 -161,20 -228,61 -67,41 -115,102 -146,185 -31,82 -47,203 -47,364l0 958 -505 0 0 -2642 505 0zm1638 1661c0,-168 41,-331 124,-489 83,-158 200,-278 352,-361 152,-83 321,-124 509,-124 289,0 526,94 711,282 185,189 277,426 277,714 0,290 -93,530 -280,721 -186,190 -421,286 -705,286 -175,0 -342,-40 -502,-120 -158,-79 -279,-195 -362,-349 -83,-153 -124,-340 -124,-560zm520 27c0,190 45,336 134,437 91,101 201,152 334,152 131,0 242,-51 331,-152 89,-101 134,-248 134,-441 0,-187 -45,-332 -134,-432 -89,-102 -200,-152 -331,-152 -133,0 -243,50 -334,152 -89,100 -134,246 -134,436zm1836 -961l472 0 0 281c62,-96 144,-173 249,-233 104,-59 220,-88 348,-88 222,0 410,87 565,261 155,174 233,418 233,729 0,320 -78,569 -234,746 -157,178 -346,267 -569,267 -105,0 -201,-21 -287,-64 -86,-42 -177,-113 -271,-215l0 957 -506 0 0 -2641zm498 928c0,216 43,375 128,478 85,103 189,155 310,155 118,0 216,-48 294,-143 78,-94 117,-249 117,-465 0,-202 -40,-351 -121,-449 -80,-97 -179,-146 -298,-146 -124,0 -226,48 -308,144 -81,96 -122,238 -122,426z"/>
   </g>
  </g>
 </g>
</svg>
